<?xml version="1.0" encoding="UTF-8" standalone="no"?>
<svg
   xmlns:dc="http://purl.org/dc/elements/1.1/"
   xmlns:cc="http://creativecommons.org/ns#"
   xmlns:rdf="http://www.w3.org/1999/02/22-rdf-syntax-ns#"
   xmlns:svg="http://www.w3.org/2000/svg"
   xmlns="http://www.w3.org/2000/svg"
   xmlns:sodipodi="http://sodipodi.sourceforge.net/DTD/sodipodi-0.dtd"
   xmlns:inkscape="http://www.inkscape.org/namespaces/inkscape"
   height="100px"
   width="100px"
   fill="#0283B3"
   version="1.1"
   x="0px"
   y="0px"
   viewBox="0 0 100 100"
   enable-background="new 0 0 100 100"
   xml:space="preserve"
   id="svg16"
   sodipodi:docname="logo.svg"
   inkscape:version="0.92.4 (5da689c313, 2019-01-14)"
   inkscape:export-filename="C:\code\RoslynBuddy\img\logo.png"
   inkscape:export-xdpi="491.51999"
   inkscape:export-ydpi="491.51999"><metadata
     id="metadata22"><rdf:RDF><cc:Work
         rdf:about=""><dc:format>image/svg+xml</dc:format><dc:type
           rdf:resource="http://purl.org/dc/dcmitype/StillImage" /><dc:title></dc:title></cc:Work></rdf:RDF></metadata><defs
     id="defs20" /><sodipodi:namedview
     pagecolor="#ffffff"
     bordercolor="#666666"
     borderopacity="1"
     objecttolerance="10"
     gridtolerance="10"
     guidetolerance="10"
     inkscape:pageopacity="0"
     inkscape:pageshadow="2"
     inkscape:window-width="3106"
     inkscape:window-height="1750"
     id="namedview18"
     showgrid="false"
     inkscape:zoom="13.350176"
     inkscape:cx="59.448719"
     inkscape:cy="47.506764"
     inkscape:window-x="321"
     inkscape:window-y="190"
     inkscape:window-maximized="0"
     inkscape:current-layer="g14" /><g
     id="g14"><path
       d="m 23.9,37.3 c 2.8,0 5,-2.2 5,-5 0,-2.8 -2.2,-5 -5,-5 -2.8,0 -5,2.2 -5,5 0,2.8 2.3,5 5,5 z m 0,-7 c 1.1,0 2,0.9 2,2 0,1.1 -0.9,2 -2,2 -1.1,0 -2,-0.9 -2,-2 0,-1.1 0.9,-2 2,-2 z"
       id="path2"
       inkscape:connector-curvature="0" /><path
       d="m 35.4,37.3 c 2.8,0 5,-2.2 5,-5 0,-2.8 -2.2,-5 -5,-5 -2.8,0 -5,2.2 -5,5 0,2.8 2.3,5 5,5 z m 0,-7 c 1.1,0 2,0.9 2,2 0,1.1 -0.9,2 -2,2 -1.1,0 -2,-0.9 -2,-2 0,-1.1 0.9,-2 2,-2 z"
       id="path4"
       inkscape:connector-curvature="0" /><path
       d="m 39.5,43.7 c 0.6,-0.6 0.6,-1.5 0,-2.1 -0.6,-0.6 -1.5,-0.6 -2.1,0 -2.7,2.6 -5.4,3.8 -8.1,3.7 -4,-0.2 -6.7,-3.5 -6.8,-3.5 -0.5,-0.6 -1.5,-0.7 -2.1,-0.2 -0.6,0.5 -0.7,1.5 -0.2,2.1 0.1,0.2 3.6,4.3 8.9,4.6 0.2,0 0.5,0 0.7,0 3.3,0 6.6,-1.6 9.7,-4.6 z"
       id="path6"
       inkscape:connector-curvature="0" /><circle
       cx="67.300003"
       cy="32.299999"
       r="2"
       id="circle8" /><circle
       cx="78.800003"
       cy="32.299999"
       r="2"
       id="circle10"
       style="fill:#0283b3;fill-opacity:1" /><path
       d="m 83.6,57.3 c 7.7,-3.7 13.1,-11.6 13.1,-20.8 0,-12.7 -10.3,-23 -23,-23 -10.3,0 -19,6.7 -21.9,16 C 48.7,20 39.8,13 29.3,13 16.3,13 5.8,23.6 5.8,36.5 c 0,9.4 5.6,17.6 13.6,21.3 -7.7,3.8 -13,11.7 -13,20.8 0,4.5 3.7,8.2 8.2,8.2 h 29.9 c 3.4,0 6.3,-2.1 7.6,-5 1.3,2.9 4.2,5 7.6,5 h 29.9 c 4.5,0 8.2,-3.7 8.2,-8.2 0,-9.5 -5.9,-17.8 -14.2,-21.3 z m -4.8,-30 c 2.8,0 5,2.2 5,5 0,2.8 -2.2,5 -5,5 -2.8,0 -5,-2.2 -5,-5 0,-2.8 2.3,-5 5,-5 z m 2,14.3 c 0.6,-0.6 1.5,-0.6 2.1,0 0.6,0.6 0.6,1.5 0,2.1 -3.1,3 -6.4,4.5 -9.7,4.5 -0.2,0 -0.4,0 -0.7,0 -5.3,-0.3 -8.7,-4.4 -8.9,-4.6 -0.5,-0.6 -0.4,-1.6 0.2,-2.1 0.6,-0.5 1.6,-0.4 2.1,0.2 0,0 2.8,3.3 6.8,3.5 2.7,0.2 5.4,-1 8.1,-3.6 z M 67.3,27.3 c 2.8,0 5,2.2 5,5 0,2.8 -2.2,5 -5,5 -2.8,0 -5,-2.2 -5,-5 0,-2.8 2.3,-5 5,-5 z M 11.7,36.5 C 11.7,26.8 19.6,19 29.2,19 38.8,19 46.7,26.9 46.7,36.5 46.7,46.2 38.8,54 29.2,54 19.6,54 11.7,46.2 11.7,36.5 Z M 44.5,81.9 H 14.6 c -1.8,0 -3.2,-1.5 -3.2,-3.2 0,-10 8.2,-18.2 18.2,-18.2 10,0 18.2,8.2 18.2,18.2 -0.1,1.8 -1.5,3.2 -3.3,3.2 z m 7.6,-8.7 C 50.4,66.3 45.7,60.7 39.5,57.7 c 5.8,-2.8 10.3,-7.9 12.3,-14.2 2.1,6.4 6.8,11.6 12.9,14.2 -6.3,3 -11,8.7 -12.6,15.5 z"
       id="path12"
       inkscape:connector-curvature="0" /><text
       xml:space="preserve"
       style="font-style:normal;font-variant:normal;font-weight:normal;font-stretch:normal;font-size:26.66666603px;line-height:25px;font-family:'Fira Code';-inkscape-font-specification:'Fira Code';letter-spacing:0px;word-spacing:0px;fill:#0283b3;fill-opacity:1;stroke:none"
       x="24.643869"
       y="72.434822"
       id="text4534"><tspan
         sodipodi:role="line"
         id="tspan4532"
         x="24.643869"
         y="91.601486" /></text>
<text
       xml:space="preserve"
       style="font-style:normal;font-variant:normal;font-weight:normal;font-stretch:normal;font-size:13.33333302px;line-height:25px;font-family:'Fira Code';-inkscape-font-specification:'Fira Code';letter-spacing:0px;word-spacing:0px;fill:#000000;fill-opacity:1;stroke:none"
       x="26.666315"
       y="72.659538"
       id="text4542"><tspan
         sodipodi:role="line"
         id="tspan4540"
         x="26.666315"
         y="88.492874" /></text>
<flowRoot
       xml:space="preserve"
       id="flowRoot4544"
       style="font-style:normal;font-variant:normal;font-weight:normal;font-stretch:normal;font-size:12px;line-height:25px;font-family:'Fira Code';-inkscape-font-specification:'Fira Code';letter-spacing:0px;word-spacing:0px;fill:#000000;fill-opacity:1;stroke:none"><flowRegion
         id="flowRegion4546"><rect
           id="rect4548"
           width="2.3969722"
           height="16.554089"
           x="20.673885"
           y="59.401283" /></flowRegion><flowPara
         id="flowPara4550"></flowPara></flowRoot><text
       xml:space="preserve"
       style="font-style:normal;font-variant:normal;font-weight:normal;font-stretch:normal;font-size:12px;line-height:25px;font-family:'Fira Code';-inkscape-font-specification:'Fira Code';letter-spacing:0px;word-spacing:0px;fill:#000000;fill-opacity:1;stroke:none"
       x="18.501629"
       y="78.726875"
       id="text4554"><tspan
         sodipodi:role="line"
         id="tspan4552"
         x="18.501629"
         y="78.726875"
         style="font-size:18.66666603px;fill:#0283b3;fill-opacity:1;font-weight:bold">C#</tspan></text>
</g></svg>